<svg id="Capa_1" enable-background="new 0 0 512 512" height="512" viewBox="0 0 512 512" width="512" xmlns="http://www.w3.org/2000/svg"><path d="m497 512h-482c-8.284 0-15-6.716-15-15v-482c0-8.284 6.716-15 15-15h482c8.284 0 15 6.716 15 15v482c0 8.284-6.716 15-15 15z" fill="#00aced"/><path d="m497 0h-241v512h241c8.284 0 15-6.716 15-15v-482c0-8.284-6.716-15-15-15z" fill="#009cea"/><path d="m242.583 441.642c-62.406 0-113.177-50.771-113.177-113.177v-215.417c0-23.539 19.151-42.69 42.69-42.69 23.54 0 42.69 19.151 42.69 42.69v67.327h125.118c23.539 0 42.69 19.151 42.69 42.69s-19.15 42.69-42.69 42.69h-125.118v48.481c0 23.173 18.853 42.025 42.025 42.025h83.093c11.746 0 23.11 4.957 31.181 13.599 8.055 8.625 12.213 20.308 11.407 32.051-1.526 22.279-20.533 39.73-43.27 39.73h-96.639z" fill="#fff"/><g fill="#d7f2f9"><path d="m256 265.755h83.904c23.539 0 42.69-19.151 42.69-42.69s-19.15-42.69-42.69-42.69h-83.904z"/><path d="m339.904 356.262h-83.093c-.272 0-.54-.015-.811-.02v85.4h83.222c22.737 0 41.744-17.451 43.27-39.73.806-11.743-3.353-23.426-11.407-32.051-8.07-8.643-19.435-13.599-31.181-13.599z"/></g></svg>