<svg id="Capa_1" enable-background="new 0 0 512 512" height="512" viewBox="0 0 512 512" width="512" xmlns="http://www.w3.org/2000/svg"><g><path d="m188.013 144.003h-39.399c-12.452 0-22.583 10.13-22.583 22.583s10.131 22.583 22.583 22.583h16.816v159.061c0 12.452 10.131 22.583 22.583 22.583s22.583-10.131 22.583-22.583v-181.645c0-12.452-10.131-22.582-22.583-22.582zm7.583 204.227c0 4.181-3.401 7.583-7.583 7.583s-7.583-3.402-7.583-7.583v-166.562c0-4.142-3.358-7.5-7.5-7.5h-24.316c-4.181 0-7.583-3.402-7.583-7.583s3.402-7.583 7.583-7.583h39.399c4.181 0 7.583 3.401 7.583 7.583zm139.397-145.467c0-17.247-14.031-31.278-31.278-31.278s-31.278 14.031-31.278 31.278 14.031 31.277 31.278 31.277c17.246 0 31.278-14.031 31.278-31.277zm-47.556 0c0-8.976 7.302-16.278 16.278-16.278s16.278 7.302 16.278 16.278-7.302 16.277-16.278 16.277-16.278-7.302-16.278-16.277zm213.162-64.203-25.686-25.686h18.731c7.534 0 13.664-6.129 13.664-13.664v-17.745c0-7.534-6.129-13.663-13.664-13.663h-49.774v-49.774c0-7.534-6.129-13.663-13.663-13.663h-17.746c-7.534 0-13.664 6.129-13.664 13.664v18.731l-25.357-25.359c-7.352-7.352-17.127-11.401-27.525-11.401h-179.83c-10.398 0-20.173 4.049-27.525 11.401l-127.159 127.159c-7.352 7.352-11.401 17.128-11.401 27.525v179.829c0 10.398 4.049 20.173 11.401 27.525l127.159 127.16c7.352 7.352 17.127 11.401 27.525 11.401h179.829c10.398 0 20.173-4.049 27.525-11.401l127.16-127.159c7.352-7.352 11.401-17.127 11.401-27.525v-179.83c0-10.397-4.049-20.173-11.401-27.525zm-97.301-55.758c5.79 0 10.5-4.71 10.5-10.5v-52.937h15.072v52.938c0 5.79 4.71 10.5 10.5 10.5h52.938v15.072h-52.938c-5.79 0-10.5 4.71-10.5 10.5v52.938h-15.072v-52.938c0-5.79-4.71-10.5-10.5-10.5h-52.938v-15.073zm93.702 263.113c0 6.391-2.489 12.4-7.008 16.919l-127.159 127.158c-4.519 4.519-10.528 7.008-16.919 7.008h-179.829c-6.391 0-12.4-2.489-16.919-7.008l-127.158-127.159c-4.519-4.519-7.008-10.527-7.008-16.918v-179.83c0-6.391 2.489-12.4 7.008-16.919l127.159-127.158c4.519-4.519 10.527-7.008 16.918-7.008h179.829c6.391 0 12.4 2.489 16.919 7.008l35.964 35.964v9.83h-11.486l-30.509-30.509c-4.656-4.656-10.847-7.221-17.432-7.221h-166.741c-6.585 0-12.776 2.564-17.432 7.221l-117.904 117.904c-4.656 4.656-7.221 10.847-7.221 17.432v166.741c0 6.585 2.564 12.776 7.221 17.432l117.904 117.904c4.656 4.656 10.847 7.221 17.432 7.221h166.741c6.585 0 12.776-2.564 17.432-7.221l117.904-117.904c4.656-4.656 7.221-10.847 7.221-17.432v-166.741c0-6.585-2.564-12.776-7.221-17.432l-5.653-5.653c-2.929-2.929-7.678-2.929-10.606 0-2.929 2.929-2.929 7.678 0 10.606l5.653 5.653c1.823 1.823 2.827 4.247 2.827 6.826v166.741c0 2.579-1.004 5.002-2.827 6.826l-117.904 117.905c-1.823 1.823-4.247 2.827-6.826 2.827h-166.741c-2.579 0-5.002-1.004-6.826-2.827l-117.904-117.905c-1.823-1.823-2.827-4.247-2.827-6.826v-166.741c0-2.579 1.004-5.002 2.827-6.826l117.905-117.904c1.823-1.823 4.247-2.827 6.826-2.827h166.741c2.579 0 5.002 1.004 6.826 2.827l19.903 19.903h-17.075c-7.534 0-13.664 6.129-13.664 13.663v17.746c0 7.534 6.129 13.664 13.663 13.664h49.774v49.774c0 7.534 6.129 13.664 13.664 13.664h17.745c7.534 0 13.664-6.129 13.664-13.664v-49.774h9.83l36.292 36.292c4.519 4.519 7.008 10.528 7.008 16.919v179.829zm-143.057-107.804c7.277-10.307 11.215-22.6 11.215-35.349 0-33.88-27.563-61.444-61.443-61.444s-61.444 27.564-61.444 61.444c0 12.749 3.938 25.042 11.216 35.349-16.192 14.342-25.658 35.052-25.658 56.815 0 4.142 3.358 7.5 7.5 7.5s7.5-3.358 7.5-7.5c0-19.578 9.563-38.102 25.581-49.552 3.602-2.575 4.149-7.933 1.155-11.183-7.928-8.606-12.293-19.768-12.293-31.429 0-25.609 20.834-46.444 46.444-46.444 25.609 0 46.443 20.835 46.443 46.444 0 11.662-4.366 22.823-12.293 31.429-2.999 3.255-2.458 8.601 1.155 11.183 16.018 11.45 25.581 29.974 25.581 49.552 0 33.573-27.313 60.886-60.886 60.886-25.058 0-47.266-15.066-56.577-38.383-1.537-3.847-5.898-5.722-9.747-4.184-3.847 1.537-5.72 5.9-4.184 9.747 11.601 29.049 39.277 47.819 70.507 47.819 41.844 0 75.886-34.042 75.886-75.886 0-21.762-9.466-42.472-25.658-56.814zm-95.948 56.816c0 25.21 20.51 45.72 45.72 45.72s45.72-20.51 45.72-45.72-20.51-45.721-45.72-45.721-45.72 20.51-45.72 45.721zm45.72-30.721c16.939 0 30.72 13.781 30.72 30.721 0 16.939-13.781 30.72-30.72 30.72s-30.72-13.781-30.72-30.72c0-16.94 13.781-30.721 30.72-30.721z"/></g></svg>