<?xml version="1.0" encoding="iso-8859-1"?>
<!-- Generator: Adobe Illustrator 19.0.0, SVG Export Plug-In . SVG Version: 6.00 Build 0)  -->
<svg version="1.1" id="Capa_1" xmlns="http://www.w3.org/2000/svg" xmlns:xlink="http://www.w3.org/1999/xlink" x="0px" y="0px"
	 viewBox="0 0 512 512" style="enable-background:new 0 0 512 512;" xml:space="preserve">
<g>
	<g>
		<rect x="315.733" y="243.2" width="17.067" height="17.067"/>
	</g>
</g>
<g>
	<g>
		<rect x="247.467" y="243.2" width="17.067" height="17.067"/>
	</g>
</g>
<g>
	<g>
		<rect x="281.6" y="243.2" width="17.067" height="17.067"/>
	</g>
</g>
<g>
	<g>
		<rect x="213.333" y="243.2" width="17.067" height="17.067"/>
	</g>
</g>
<g>
	<g>
		<rect x="179.2" y="243.2" width="17.067" height="17.067"/>
	</g>
</g>
<g>
	<g>
		<path d="M486.4,209.067h-8.533v-34.133c0-14.114-11.486-25.6-25.6-25.6H435.2c-3.004,0-5.854,0.614-8.533,1.57v-27.17
			c0-14.114-11.486-25.6-25.6-25.6H384c-14.114,0-25.6,11.486-25.6,25.6v85.333H153.6v-85.333c0-14.114-11.486-25.6-25.6-25.6
			h-17.067c-14.114,0-25.6,11.486-25.6,25.6v27.17c-2.679-0.956-5.53-1.57-8.533-1.57H59.733c-14.114,0-25.6,11.486-25.6,25.6
			v34.133H25.6c-14.114,0-25.6,11.486-25.6,25.6V268.8c0,14.114,11.486,25.6,25.6,25.6h8.533v42.667c0,14.114,11.486,25.6,25.6,25.6
			H76.8c3.004,0,5.854-0.614,8.533-1.57v27.17c0,14.114,11.486,25.6,25.6,25.6H128c14.114,0,25.6-11.486,25.6-25.6V294.4h204.8
			v93.867c0,14.114,11.486,25.6,25.6,25.6h17.067c14.114,0,25.6-11.486,25.6-25.6v-27.17c2.679,0.956,5.53,1.57,8.533,1.57h17.067
			c14.114,0,25.6-11.486,25.6-25.6V294.4h8.533c14.114,0,25.6-11.486,25.6-25.6v-34.133C512,220.553,500.514,209.067,486.4,209.067z
			 M34.133,277.333H25.6c-4.71,0-8.533-3.823-8.533-8.533v-34.133c0-4.71,3.823-8.533,8.533-8.533h8.533V277.333z M85.333,337.067
			c0,4.71-3.823,8.533-8.533,8.533H59.733c-4.71,0-8.533-3.823-8.533-8.533v-51.2V217.6v-42.667c0-4.71,3.823-8.533,8.533-8.533
			H76.8c4.71,0,8.533,3.823,8.533,8.533V337.067z M136.533,388.267c0,4.71-3.823,8.533-8.533,8.533h-17.067
			c-4.71,0-8.533-3.823-8.533-8.533v-51.2V174.933v-51.2c0-4.71,3.823-8.533,8.533-8.533H128c4.71,0,8.533,3.823,8.533,8.533
			V388.267z M358.4,277.333H153.6v-51.2h204.8V277.333z M409.6,174.933v162.133v51.2c0,4.71-3.823,8.533-8.533,8.533H384
			c-4.71,0-8.533-3.823-8.533-8.533V123.733c0-4.71,3.823-8.533,8.533-8.533h17.067c4.71,0,8.533,3.823,8.533,8.533V174.933z
			 M460.8,217.6v68.267v51.2c0,4.71-3.823,8.533-8.533,8.533H435.2c-4.71,0-8.533-3.823-8.533-8.533V174.933
			c0-4.71,3.823-8.533,8.533-8.533h17.067c4.71,0,8.533,3.823,8.533,8.533V217.6z M494.933,268.8c0,4.71-3.823,8.533-8.533,8.533
			h-8.533v-51.2h8.533c4.71,0,8.533,3.823,8.533,8.533V268.8z"/>
	</g>
</g>
<g>
</g>
<g>
</g>
<g>
</g>
<g>
</g>
<g>
</g>
<g>
</g>
<g>
</g>
<g>
</g>
<g>
</g>
<g>
</g>
<g>
</g>
<g>
</g>
<g>
</g>
<g>
</g>
<g>
</g>
</svg>
