<?xml version="1.0" encoding="iso-8859-1"?>
<!-- Generator: Adobe Illustrator 19.0.0, SVG Export Plug-In . SVG Version: 6.00 Build 0)  -->
<svg version="1.1" id="Capa_1" xmlns="http://www.w3.org/2000/svg" xmlns:xlink="http://www.w3.org/1999/xlink" x="0px" y="0px"
	 viewBox="0 0 512 512" style="enable-background:new 0 0 512 512;" xml:space="preserve">
<circle style="fill:#F7A16E;" cx="256" cy="256" r="256"/>
<path style="fill:#B66652;" d="M256,512c141.385,0,256-114.615,256-256c0-81.808-38.374-154.652-98.103-201.517
	c-10.779,12.137-10.358,30.723,1.269,42.351c42.515,42.516,65.928,99.042,65.928,159.166s-23.414,116.65-65.928,159.166
	S316.124,481.095,256,481.095s-116.65-23.414-159.166-65.928c-11.629-11.629-30.214-12.048-42.352-1.269
	C101.348,473.626,174.192,512,256,512z"/>
<path style="fill:#4D5967;" d="M430.824,155.065c-17.74-30.607-43.282-56.15-73.89-73.89L256,54.085
	c-36.743,0-71.223,9.87-100.935,27.092l-73.89,73.89C63.955,184.777,54.085,219.257,54.085,256l27.092,100.935
	c17.74,30.607,43.282,56.15,73.89,73.89L256,457.915c36.743,0,71.223-9.87,100.935-27.092l73.89-73.89
	c17.221-29.711,27.092-64.192,27.092-100.935L430.824,155.065z"/>
<g>
	<path style="fill:#FF5368;" d="M54.085,256c0,36.743,9.87,71.223,27.092,100.935L256,256H54.085z"/>
	<path style="fill:#FF5368;" d="M155.065,81.176c-30.607,17.74-56.15,43.282-73.89,73.89L256,256L155.065,81.176z"/>
	<path style="fill:#FF5368;" d="M356.935,81.176C327.223,63.955,292.743,54.085,256,54.085V256L356.935,81.176z"/>
</g>
<path id="SVGCleanerId_0" style="fill:#FF5368;" d="M155.065,430.824c29.712,17.222,64.192,27.092,100.935,27.092V256
	L155.065,430.824z"/>
<g>
	<path id="SVGCleanerId_0_1_" style="fill:#FF5368;" d="M155.065,430.824c29.712,17.222,64.192,27.092,100.935,27.092V256
		L155.065,430.824z"/>
</g>
<path style="fill:#FF5368;" d="M256,256h201.915c0-36.743-9.87-71.223-27.092-100.935L256,256z"/>
<path style="fill:#4FE267;" d="M356.935,430.824c30.607-17.74,56.15-43.282,73.89-73.89L256,256L356.935,430.824z"/>
<path style="fill:#35404A;" d="M457.915,256l-27.092-100.935c-17.74-30.607-43.282-56.15-73.89-73.89l-29.851-8.012
	c-3.543,13.17,1.991,27.586,14.352,34.75C394.22,138.508,427.01,195.25,427.01,256c0,30.018-7.927,59.562-22.926,85.438
	C373.493,394.22,316.751,427.01,256,427.01c-30.017,0-59.561-7.927-85.437-22.925c-14.076-8.158-31.905-3.963-40.957,9.232
	c8.013,6.451,16.512,12.32,25.459,17.506L256,457.915c36.743,0,71.223-9.87,100.935-27.092l73.89-73.89
	C448.045,327.223,457.915,292.743,457.915,256z"/>
<g>
	<path style="fill:#D9435B;" d="M329.086,67.793c-6.943,14.413-1.72,31.967,12.351,40.121c0.015,0.009,0.03,0.019,0.045,0.027
		l15.453-26.765C348.058,76.031,338.747,71.558,329.086,67.793z"/>
	<path style="fill:#D9435B;" d="M170.517,404.061l-15.452,26.763c29.712,17.222,64.192,27.092,100.935,27.092V427.01
		c-30.017,0-59.561-7.927-85.437-22.925C170.549,404.076,170.532,404.069,170.517,404.061z"/>
</g>
<path style="fill:#00BD4F;" d="M356.935,430.824c30.607-17.74,56.15-43.282,73.89-73.89l-26.766-15.453
	c-15.279,26.344-37.073,47.704-62.628,62.489L356.935,430.824z"/>
<path style="fill:#D9435B;" d="M403.97,170.57c14.824,25.623,23.04,55.024,23.04,85.43h30.905c0-36.743-9.87-71.223-27.092-100.935
	L403.97,170.57z"/>
<path style="fill:#F7A16E;" d="M256,334.294c-42.541,0-78.294-34.776-78.294-78.294c0-43.171,35.123-78.294,78.294-78.294
	s78.294,35.123,78.294,78.294C334.294,299.641,298.415,334.294,256,334.294z"/>
<path style="fill:#B66652;" d="M334.294,256c0-32.694-20.151-60.758-48.68-72.46c-7.99,12.005-6.693,28.363,3.895,38.951
	c18.477,18.477,18.477,48.541,0,67.018s-48.541,18.477-67.018,0c-10.581-10.583-26.928-11.885-38.931-3.911
	c11.811,28.668,40.163,48.696,72.439,48.696C298.415,334.294,334.294,299.641,334.294,256z"/>
<g>
	<path style="fill:#FFF9EB;" d="M296.177,241.475c-5.178,0-9.712,2.719-12.283,6.798h-20.168v-20.168
		c4.079-2.572,6.798-7.105,6.798-12.283c0-8.021-6.504-14.525-14.525-14.525c-8.021,0-14.525,6.504-14.525,14.525
		c0,5.178,2.719,9.712,6.798,12.283v20.168h-20.168c-2.572-4.08-7.105-6.798-12.283-6.798c-8.021,0-14.525,6.504-14.525,14.525
		c0,8.021,6.505,14.525,14.525,14.525c5.178,0,9.712-2.719,12.283-6.798h20.168v20.168c-4.08,2.572-6.798,7.105-6.798,12.283
		c0,8.021,6.504,14.525,14.525,14.525c8.021,0,14.525-6.504,14.525-14.525c0-5.178-2.719-9.712-6.798-12.283v-20.168h20.168
		c2.572,4.079,7.105,6.798,12.283,6.798c8.021,0,14.525-6.504,14.525-14.525C310.702,247.979,304.198,241.475,296.177,241.475z"/>
	<circle style="fill:#FFF9EB;" cx="144.74" cy="144.74" r="15.453"/>
</g>
<g>
</g>
<g>
</g>
<g>
</g>
<g>
</g>
<g>
</g>
<g>
</g>
<g>
</g>
<g>
</g>
<g>
</g>
<g>
</g>
<g>
</g>
<g>
</g>
<g>
</g>
<g>
</g>
<g>
</g>
</svg>
